<?xml version="1.0" encoding="UTF-8" standalone="no"?>
<svg width="60px" height="60px" viewBox="0 0 60 60" version="1.1" xmlns="http://www.w3.org/2000/svg" xmlns:xlink="http://www.w3.org/1999/xlink" xmlns:sketch="http://www.bohemiancoding.com/sketch/ns">
    <!-- Generator: Sketch 3.2.2 (9983) - http://www.bohemiancoding.com/sketch -->
    <title>Doctorconsult</title>
    <desc>Created with Sketch.</desc>
    <defs></defs>
    <g id="stroked" stroke="none" stroke-width="1" fill="none" fill-rule="evenodd" sketch:type="MSPage">
        <g id="Medical" sketch:type="MSLayerGroup" transform="translate(-500.000000, 3.000000)" stroke-linecap="round" stroke="#000000" stroke-width="2">
            <g id="Doctorconsult" transform="translate(511.000000, 1.000000)" sketch:type="MSShapeGroup">
                <ellipse id="Oval-231" cx="35" cy="18.0424066" rx="7" ry="6.95759339"></ellipse>
                <ellipse id="Oval-232" cx="35" cy="18.0424066" rx="3" ry="2.98182574"></ellipse>
                <path d="M35,25.2989254 L35,38.9959987 C35,45.6256256 29.6288742,51 23,51 L23,51 C16.372583,51 11,45.6299194 11,38.9976387 L11,28.9325774" id="Rectangle-133"></path>
                <path d="M0.0114689651,12.7503809 C0.00385047651,12.9185064 0,13.0876146 0,13.2576231 L0,17.2426309 C0,23.3291594 4.92486775,28.250127 11,28.250127 C17.076468,28.250127 22,23.3219031 22,17.2426309 L22,13.2576231 C22,13.0874344 21.9961495,12.918157 21.988531,12.749873 C21.7237226,18.5936871 16.906538,23.250127 11,23.250127 C5.09473776,23.250127 0.276313037,18.6005076 0.0114689651,12.7503809 Z" id="Rectangle-133" stroke-linejoin="round"></path>
                <path d="M22,12.5 L22,5 L18.6096819,2.28334851" id="Line" stroke-linejoin="round"></path>
                <path d="M19.5,0.5 L15.5,4.5" id="Line" stroke-linejoin="round"></path>
                <path d="M3.39031811,12.5 L3.39031811,5 L0,2.28334851" id="Line-70" stroke-linejoin="round" transform="translate(1.695159, 7.391674) scale(-1, 1) translate(-1.695159, -7.391674) "></path>
                <path d="M6.5,0.5 L2.5,4.5" id="Line-69" stroke-linejoin="round" transform="translate(4.500000, 2.500000) scale(-1, 1) translate(-4.500000, -2.500000) "></path>
            </g>
        </g>
    </g>
</svg>